<svg width="1126" height="262" xmlns="http://www.w3.org/2000/svg" fill="none">

 <g>
  <title>Layer 1</title>
  <path id="svg_1" fill="black" d="m283.054,40.7604l-73.457,0l0,-19.9782c0,-11.4617 -9.321,-20.7822 -20.783,-20.7822l-79.148,0c-11.462,0 -20.783,9.3205 -20.783,20.7822l0,19.9782l-73.4576,0c-8.5007,0 -15.4254,6.9168 -15.4254,15.4255l0,189.3951c0,8.501 6.9168,15.426 15.4254,15.426l267.6286,0c8.501,0 15.426,-6.917 15.426,-15.426l0,-189.4031c0,-8.5007 -6.917,-15.4254 -15.426,-15.4254l0,0.0079zm-174.272,-19.9782c0,-0.4856 0.398,-0.8835 0.884,-0.8835l79.148,0c0.486,0 0.884,0.3979 0.884,0.8835l0,19.9782l-80.908,0l0,-19.9782l-0.008,0zm102.279,214.7938c-13.324,0 -25.51,-4.839 -34.934,-12.838l-9.79,0.063l-43.952,-0.087c-9.424,8.015 -21.626,12.862 -34.966,12.862c-29.824,0 -53.997,-24.173 -53.997,-53.997c0,-27.715 20.877,-50.542 47.765,-53.639l0,-0.015c3.151,-9.95 8.413,-18.952 15.266,-26.482c-3.59,-3.319 -5.834,-8.055 -5.834,-13.332c0,-10.0207 8.126,-18.1473 18.147,-18.1473c7.88,0 14.59,5.0224 17.089,12.0423c7.339,-2.5466 15.219,-3.9316 23.425,-3.9316c9.105,0 17.805,1.7033 25.812,4.8156c2.245,-7.4741 9.178,-12.9263 17.376,-12.9263c10.021,0 18.147,8.1266 18.147,18.1473c0,5.994 -2.905,11.303 -7.378,14.606c6.304,7.267 11.159,15.823 14.128,25.216c26.855,3.12 47.701,25.947 47.701,53.646c0,29.824 -24.173,53.997 -53.997,53.997l-0.008,0z"/>
  <path id="svg_2" fill="black" d="m143.398,143.772c-5.054,0 -7.426,6.248 -3.638,9.599l5.843,5.174c2.077,1.838 5.205,1.838 7.283,0l5.842,-5.174c3.781,-3.351 1.417,-9.599 -3.638,-9.599l-11.684,0l-0.008,0z"/>
  <path id="svg_3" fill="black" d="m124.916,145.109c4.115,0 7.458,-4.521 7.458,-10.1c0,-5.58 -3.335,-10.101 -7.458,-10.101c-4.123,0 -7.458,4.521 -7.458,10.101c0,5.579 3.335,10.1 7.458,10.1z"/>
  <path id="svg_4" fill="black" d="m145.69,128.426c1.942,-0.032 5.118,-0.04 7.052,-0.008c0.987,0.016 1.855,-0.708 2.125,-1.759l8.947,-35.054c-4.665,-1.289 -9.536,-1.942 -14.566,-1.942c-5.03,0 -9.902,0.661 -14.59,1.966l8.891,35.038c0.271,1.059 1.138,1.783 2.133,1.767l0.008,-0.008z"/>
  <path id="svg_5" fill="black" d="m177.687,159.15c-2.475,-2.587 -6.582,-2.667 -9.169,-0.191c-3.446,3.311 -5.906,8.118 -7.06,13.547l-0.796,0.199c-7.681,1.966 -15.823,2.069 -23.552,0.294c-1.099,-5.627 -3.606,-10.634 -7.164,-14.048c-2.578,-2.476 -6.694,-2.396 -9.169,0.191c-2.475,2.587 -2.396,6.686 0.191,9.169c2.308,2.213 3.797,6.606 3.797,11.183c0,5.413 -1.895,9.257 -3.662,11.048c-2.515,2.547 -2.491,6.654 0.064,9.169c1.266,1.25 2.905,1.871 4.553,1.871c1.648,0 3.343,-0.645 4.616,-1.927c3.351,-3.39 5.675,-8.102 6.742,-13.435c3.685,0.66 7.434,1.003 11.183,1.003c4.378,0 8.763,-0.462 13.046,-1.369c1.026,5.484 3.382,10.331 6.813,13.801c1.266,1.29 2.945,1.927 4.616,1.927c1.672,0 3.288,-0.621 4.553,-1.871c2.547,-2.515 2.579,-6.622 0.064,-9.169c-1.767,-1.791 -3.661,-5.635 -3.661,-11.048c0,-4.577 1.488,-8.97 3.796,-11.183c2.587,-2.475 2.667,-6.582 0.191,-9.169l0.008,0.008z"/>
  <path id="svg_6" fill="black" d="m173.556,145.109c4.119,0 7.458,-4.522 7.458,-10.1c0,-5.579 -3.339,-10.101 -7.458,-10.101c-4.119,0 -7.458,4.522 -7.458,10.101c0,5.578 3.339,10.1 7.458,10.1z"/>
  <path id="svg_7" fill="black" d="m367.586,172.778l0,-133.212l57.5,0c29.595,0 49.434,18.733 49.434,47.093c0,28.684 -20.359,46.572 -50.735,46.572l-20.034,0l0,39.547l-36.165,0zm36.165,-67.647l12.749,0c12.684,0 20.294,-7.09 20.294,-18.472c0,-11.4484 -7.61,-18.213 -20.294,-18.213l-12.749,0l0,36.685zm84.038,67.647l0,-133.212l36.165,0l0,104.072l53.857,0l0,29.14l-90.022,0zm139.245,0l-39.027,0l43.97,-133.212l49.435,0l43.97,133.212l-39.027,0l-7.675,-25.498l-43.971,0l-7.675,25.498zm15.871,-52.556l27.579,0l-13.269,-43.9706l-1.041,0l-13.269,43.9706zm95.307,52.556l0,-133.212l36.165,0l0,53.857l1.821,0l40.068,-53.857l42.149,0l-45.011,59.321l46.052,73.891l-43.19,0l-29.921,-49.954l-11.968,15.61l0,34.344l-36.165,0zm165.539,0l-39.027,0l43.971,-133.212l49.435,0l43.97,133.212l-39.03,0l-7.67,-25.498l-43.973,0l-7.676,25.498zm15.871,-52.556l27.578,0l-13.27,-43.9706l-1.04,0l-13.268,43.9706zm95.308,52.556l0,-133.212l57.5,0c29.59,0 49.43,16.9117 49.43,45.271c0,18.473 -8.45,31.417 -22.63,38.247l27.06,49.694l-39.29,0l-23.42,-43.97l-12.49,0l0,43.97l-36.16,0zm36.16,-72.07l12.75,0c12.69,0 20.3,-4.488 20.3,-15.871c0,-11.4476 -7.61,-16.391 -20.3,-16.391l-12.75,0l0,32.262z"/>
  <path id="svg_8" fill="#524CFF" d="m1063.55,261.063l0,-59.125l59.95,0l0,13.829l-41.57,0l0,9.108l38.34,0l0,13.167l-38.34,0l0,9.192l41.57,0l0,13.829l-59.95,0z"/>
  <path id="svg_9" fill="#524CFF" d="m1013.21,262.222c-5.36,0 -10.13,-0.414 -14.33,-1.242c-4.19,-0.828 -7.81,-2.043 -10.84,-3.644c-2.99,-1.656 -5.3,-3.671 -6.96,-6.045c-1.6,-2.373 -2.51,-5.079 -2.73,-8.115l18.96,0c0.39,0.994 1.02,1.905 1.9,2.733c0.94,0.773 2.07,1.435 3.4,1.987c1.38,0.552 2.95,0.994 4.72,1.325c1.82,0.276 3.78,0.414 5.88,0.414c2.87,0 5.38,-0.248 7.53,-0.745c2.16,-0.552 3.84,-1.27 5.06,-2.153c1.21,-0.939 1.82,-2.015 1.82,-3.23c0,-0.717 -0.17,-1.297 -0.5,-1.739c-0.28,-0.496 -0.74,-0.883 -1.41,-1.159c-0.6,-0.331 -1.38,-0.552 -2.32,-0.662l-21.19,-2.567c-3.92,-0.497 -7.35,-1.215 -10.27,-2.153c-2.87,-0.939 -5.25,-2.126 -7.12,-3.561c-1.88,-1.491 -3.29,-3.23 -4.23,-5.217c-0.94,-2.043 -1.41,-4.334 -1.41,-6.873c0,-2.926 0.75,-5.548 2.24,-7.867c1.49,-2.319 3.64,-4.279 6.46,-5.879c2.87,-1.657 6.32,-2.899 10.35,-3.727c4.03,-0.883 8.59,-1.325 13.66,-1.325c4.86,0 9.22,0.387 13.09,1.16c3.86,0.772 7.17,1.904 9.93,3.395c2.77,1.49 4.89,3.312 6.38,5.465c1.55,2.153 2.43,4.61 2.65,7.37l-19.04,0c-0.23,-1.049 -0.92,-1.905 -2.08,-2.567c-1.1,-0.718 -2.62,-1.27 -4.55,-1.656c-1.93,-0.387 -4.22,-0.58 -6.87,-0.58c-2.76,0 -5.14,0.221 -7.12,0.663c-1.99,0.386 -3.51,0.966 -4.56,1.739c-0.99,0.772 -1.49,1.711 -1.49,2.815c0,0.662 0.19,1.297 0.58,1.905c0.44,0.552 1.02,1.021 1.74,1.407c0.77,0.387 1.66,0.635 2.65,0.746l21.86,2.649c4.8,0.553 8.81,1.574 12.01,3.064c3.2,1.491 5.6,3.451 7.2,5.88c1.66,2.374 2.49,5.244 2.49,8.612c0,3.147 -0.72,5.934 -2.16,8.364c-1.43,2.373 -3.58,4.388 -6.46,6.045c-2.81,1.656 -6.32,2.898 -10.51,3.726c-4.14,0.828 -8.95,1.242 -14.41,1.242z"/>
  <path id="svg_10" fill="#524CFF" d="m942.91,261.063l0,-59.125l18.39,0l0,59.125l-18.39,0z"/>
  <path id="svg_11" fill="#524CFF" d="m857.768,261.063l0,-59.125l43.722,0c4.527,0 8.392,0.607 11.594,1.821c3.257,1.215 5.741,3.037 7.452,5.466c1.767,2.373 2.65,5.355 2.65,8.943c0,2.76 -0.635,5.327 -1.904,7.701c-1.27,2.374 -3.34,4.334 -6.211,5.88c-2.815,1.545 -6.625,2.484 -11.428,2.815l1.574,-0.828c3.147,0 5.769,0.386 7.867,1.159c2.153,0.773 3.892,2.015 5.217,3.727c1.38,1.656 2.484,3.836 3.312,6.542l4.803,15.899l-19.129,0l-3.892,-13.001c-0.662,-2.264 -1.739,-4.003 -3.23,-5.217c-1.49,-1.27 -3.698,-1.905 -6.624,-1.905l-17.39,0l0,20.123l-18.383,0zm18.383,-33.952l22.358,0c0.884,0 1.739,-0.165 2.567,-0.497c0.884,-0.386 1.601,-0.993 2.153,-1.821c0.608,-0.828 0.911,-1.933 0.911,-3.313c0,-2.153 -0.635,-3.643 -1.904,-4.471c-1.215,-0.828 -2.457,-1.242 -3.727,-1.242l-22.358,0l0,11.344z"/>
  <path id="svg_12" fill="#524CFF" d="m776.425,261.063l0,-59.125l40.99,0c3.754,0 7.094,0.469 10.02,1.407c2.926,0.939 5.41,2.291 7.453,4.058c2.042,1.766 3.588,3.919 4.637,6.459c1.104,2.539 1.656,5.41 1.656,8.612c0,3.202 -0.552,6.073 -1.656,8.612c-1.049,2.54 -2.595,4.72 -4.637,6.542c-2.043,1.767 -4.527,3.119 -7.453,4.058c-2.926,0.938 -6.266,1.407 -10.02,1.407l-22.607,0l0,17.97l-18.383,0zm18.383,-31.964l20.951,0c1.214,0 2.291,-0.249 3.229,-0.746c0.994,-0.552 1.767,-1.325 2.319,-2.318c0.552,-0.994 0.828,-2.181 0.828,-3.561c0,-2.098 -0.607,-3.726 -1.822,-4.886c-1.214,-1.214 -2.732,-1.821 -4.554,-1.821l-20.951,0l0,13.332z"/>
  <path id="svg_13" fill="#524CFF" d="m691.281,261.063l0,-59.125l43.723,0c4.526,0 8.391,0.607 11.593,1.821c3.257,1.215 5.741,3.037 7.453,5.466c1.766,2.373 2.649,5.355 2.649,8.943c0,2.76 -0.634,5.327 -1.904,7.701c-1.27,2.374 -3.34,4.334 -6.211,5.88c-2.815,1.545 -6.624,2.484 -11.427,2.815l1.573,-0.828c3.147,0 5.769,0.386 7.867,1.159c2.153,0.773 3.892,2.015 5.217,3.727c1.38,1.656 2.484,3.836 3.312,6.542l4.803,15.899l-19.129,0l-3.892,-13.001c-0.662,-2.264 -1.739,-4.003 -3.229,-5.217c-1.491,-1.27 -3.699,-1.905 -6.625,-1.905l-17.39,0l0,20.123l-18.383,0zm18.383,-33.952l22.359,0c0.883,0 1.738,-0.165 2.567,-0.497c0.883,-0.386 1.601,-0.993 2.153,-1.821c0.607,-0.828 0.911,-1.933 0.911,-3.313c0,-2.153 -0.635,-3.643 -1.905,-4.471c-1.215,-0.828 -2.457,-1.242 -3.726,-1.242l-22.359,0l0,11.344z"/>
  <path id="svg_14" fill="#524CFF" d="m613.253,261.063l0,-59.125l59.953,0l0,13.829l-41.569,0l0,9.108l38.34,0l0,13.167l-38.34,0l0,9.192l41.569,0l0,13.829l-59.953,0z"/>
  <path id="svg_15" fill="#524CFF" d="m554.247,261.063l0,-45.462l-24.346,0l0,-13.663l66.909,0l0,13.663l-24.263,0l0,45.462l-18.3,0z"/>
  <path id="svg_16" fill="#524CFF" d="m444.987,261.063l0,-59.125l20.537,0l36.27,43.143l-5.052,0.993l0,-44.136l16.562,0l0,59.125l-20.454,0l-35.276,-41.901l3.975,-1.408l0,43.309l-16.562,0z"/>
  <path id="svg_17" fill="#524CFF" d="m366.959,261.063l0,-59.125l59.954,0l0,13.829l-41.57,0l0,9.108l38.34,0l0,13.167l-38.34,0l0,9.192l41.57,0l0,13.829l-59.954,0z"/>
 </g>
</svg>