<svg width="1150" height="277" xmlns="http://www.w3.org/2000/svg" fill="none">

 <g>
  <title>Layer 1</title>
  <path id="svg_1" fill="white" d="m227.7759,132.9668c-2.857,-9.094 -7.54,-17.368 -13.611,-24.404c4.31,-3.194 7.102,-8.339 7.102,-14.13c0,-9.6985 -7.825,-17.555 -17.469,-17.555c-7.905,0 -14.578,5.2736 -16.733,12.504c-7.711,-3.007 -16.088,-4.6547 -24.851,-4.6547c-7.897,0 -15.487,1.3457 -22.553,3.8057c-2.413,-6.7915 -8.871,-11.655 -16.461,-11.655c-9.651,0 -17.469,7.8637 -17.469,17.555c0,5.101 2.162,9.691 5.62,12.9c-6.601,7.288 -11.67,16.001 -14.699,25.627l0,0.014c-25.889,2.993 -45.994,25.088 -45.994,51.902c0,28.858 23.284,52.255 52.001,52.255c12.845,0 24.594,-4.691 33.665,-12.447l42.321,0.086l9.43,-0.057c9.071,7.741 20.806,12.418 33.636,12.418c28.718,0 52.001,-23.397 52.001,-52.255c0,-26.8 -20.075,-48.887 -45.936,-51.909zm-65.576,-37.045c4.84,0 9.536,0.633 14.025,1.885l-8.62,33.923c-0.258,1.021 -1.088,1.719 -2.048,1.705c-1.868,-0.029 -4.925,-0.022 -6.794,0.007c-0.96,0.014 -1.79,-0.684 -2.055,-1.705l-8.563,-33.908c4.511,-1.267 9.207,-1.907 14.047,-1.907l0.008,0zm9.114,61.658l-5.628,5.007c-1.997,1.777 -5.011,1.777 -7.009,0l-5.628,-5.007c-3.644,-3.245 -1.36,-9.288 3.509,-9.288l11.255,0c4.868,0 7.145,6.05 3.508,9.288l-0.007,0zm-32.548,-27.541c3.966,0 7.181,4.374 7.181,9.777c0,5.404 -3.215,9.778 -7.181,9.778c-3.967,0 -7.181,-4.374 -7.181,-9.778c0,-5.403 3.214,-9.777 7.181,-9.777zm50.497,63.514c2.42,2.468 2.399,6.439 -0.057,8.871c-1.217,1.209 -2.799,1.806 -4.389,1.806c-1.589,0 -3.222,-0.626 -4.446,-1.871c-3.301,-3.36 -5.563,-8.043 -6.558,-13.353c-4.132,0.878 -8.349,1.324 -12.566,1.324c-3.608,0 -7.217,-0.324 -10.768,-0.972c-1.024,5.159 -3.265,9.713 -6.487,13.001c-1.224,1.245 -2.835,1.871 -4.446,1.871c-1.611,0 -3.172,-0.605 -4.389,-1.806c-2.456,-2.432 -2.484,-6.411 -0.057,-8.871c1.704,-1.734 3.523,-5.454 3.523,-10.691c0,-4.432 -1.44,-8.684 -3.659,-10.821c-2.492,-2.396 -2.57,-6.367 -0.186,-8.871c2.384,-2.504 6.343,-2.583 8.828,-0.187c3.422,3.295 5.835,8.144 6.895,13.591c7.439,1.712 15.278,1.618 22.674,-0.288l0.767,-0.194c1.109,-5.252 3.472,-9.907 6.794,-13.109c2.492,-2.396 6.444,-2.317 8.828,0.187c2.384,2.504 2.305,6.475 -0.186,8.871c-2.227,2.144 -3.659,6.389 -3.659,10.821c0,5.237 1.819,8.957 3.53,10.691l0.014,0zm-3.658,-43.966c-3.967,0 -7.181,-4.375 -7.181,-9.778c0,-5.403 3.214,-9.777 7.181,-9.777c3.966,0 7.181,4.374 7.181,9.777c0,5.403 -3.215,9.778 -7.181,9.778z"/>
  <path id="svg_2" fill="white" d="m203.2269,0c10.9,0 19.759,8.8591 19.759,19.7597l0,16.9239l77.983,0l0,-0.0088l1.624,0c11.253,0 20.407,9.1531 20.407,20.4062l0,199.7068c0,11.253 -9.154,20.405 -20.407,20.406l-282.1866,0c-11.2528,-0.001 -20.4059,-9.153 -20.4063,-20.406l0,-199.698c0.0001,-11.253 9.1533,-20.406 20.4063,-20.4062l79.6056,0l0,-16.9239c0,-10.9004 8.86,-19.7595 19.761,-19.7597l83.454,0zm-182.8206,53.3515c-2.0568,0.0003 -3.7294,1.6727 -3.7295,3.7295l0,199.6978c0.0002,2.057 1.6727,3.73 3.7295,3.73l282.1866,0c2.057,0 3.73,-1.673 3.73,-3.73l0,-199.6978c0,-2.057 -1.673,-3.7294 -3.73,-3.7295l-282.1866,0zm99.3666,-36.6748c-1.64,0.0002 -2.987,1.2966 -3.076,2.9151l0,17.0918l89.615,0l0,-16.9239c-0.001,-1.696 -1.389,-3.083 -3.085,-3.083l-83.454,0z"/>
  <path id="svg_3" fill="white" d="m391.5859,178.4038l0,-133.2122l57.5,0c29.595,0 49.434,18.7329 49.434,47.0922c0,28.685 -20.359,46.573 -50.735,46.573l-20.034,0l0,39.547l-36.165,0zm36.165,-67.647l12.749,0c12.684,0 20.294,-7.09 20.294,-18.473c0,-11.4476 -7.61,-18.2123 -20.294,-18.2123l-12.749,0l0,36.6853zm84.038,67.647l0,-133.2122l36.165,0l0,104.0722l53.857,0l0,29.14l-90.022,0zm139.245,0l-39.027,0l43.97,-133.2122l49.435,0l43.97,133.2122l-39.027,0l-7.675,-25.498l-43.971,0l-7.675,25.498zm15.871,-52.556l27.579,0l-13.269,-43.9709l-1.041,0l-13.269,43.9709zm95.307,52.556l0,-133.2122l36.165,0l0,53.8572l1.821,0l40.068,-53.8572l42.149,0l-45.011,59.3212l46.052,73.891l-43.19,0l-29.921,-49.955l-11.968,15.611l0,34.344l-36.165,0zm165.539,0l-39.027,0l43.971,-133.2122l49.435,0l43.97,133.2122l-39.03,0l-7.67,-25.498l-43.973,0l-7.676,25.498zm15.869,-52.556l27.58,0l-13.27,-43.9709l-1.04,0l-13.27,43.9709zm95.31,52.556l0,-133.2122l57.5,0c29.59,0 49.43,16.9117 49.43,45.2712c0,18.473 -8.45,31.417 -22.63,38.247l27.06,49.694l-39.29,0l-23.42,-43.971l-12.49,0l0,43.971l-36.16,0zm36.16,-72.07l12.75,0c12.69,0 20.3,-4.488 20.3,-15.871c0,-11.4478 -7.61,-16.3913 -20.3,-16.3913l-12.75,0l0,32.2623z"/>
  <path id="svg_4" fill="white" d="m1088.3999,266.7608l0,-59.196l60.03,0l0,13.845l-41.62,0l0,9.12l38.38,0l0,13.183l-38.38,0l0,9.203l41.62,0l0,13.845l-60.03,0z"/>
  <path id="svg_5" fill="white" d="m1037.9999,267.9218c-5.36,0 -10.14,-0.414 -14.34,-1.243c-4.2,-0.829 -7.82,-2.045 -10.86,-3.648c-2.99,-1.658 -5.31,-3.676 -6.97,-6.053c-1.6,-2.376 -2.51,-5.085 -2.73,-8.125l18.98,0c0.39,0.995 1.03,1.907 1.91,2.736c0.94,0.774 2.07,1.437 3.4,1.99c1.38,0.553 2.96,0.995 4.73,1.327c1.82,0.276 3.78,0.414 5.88,0.414c2.88,0 5.39,-0.249 7.55,-0.746c2.15,-0.553 3.84,-1.271 5.05,-2.156c1.22,-0.939 1.83,-2.017 1.83,-3.233c0,-0.719 -0.17,-1.299 -0.5,-1.741c-0.28,-0.498 -0.75,-0.885 -1.41,-1.161c-0.61,-0.332 -1.38,-0.553 -2.32,-0.663l-21.23,-2.57c-3.92,-0.498 -7.35,-1.216 -10.28,-2.156c-2.87,-0.94 -5.25,-2.128 -7.13,-3.565c-1.88,-1.492 -3.28,-3.233 -4.22,-5.223c-0.94,-2.045 -1.41,-4.339 -1.41,-6.882c0,-2.929 0.74,-5.555 2.23,-7.876c1.5,-2.322 3.65,-4.284 6.47,-5.887c2.88,-1.658 6.33,-2.901 10.37,-3.73c4.03,-0.885 8.59,-1.327 13.67,-1.327c4.87,0 9.24,0.387 13.1,1.161c3.87,0.774 7.19,1.907 9.95,3.399c2.77,1.492 4.9,3.316 6.39,5.472c1.55,2.156 2.43,4.615 2.65,7.379l-19.07,0c-0.22,-1.05 -0.91,-1.907 -2.07,-2.57c-1.11,-0.719 -2.63,-1.272 -4.56,-1.659c-1.94,-0.386 -4.23,-0.58 -6.88,-0.58c-2.77,0 -5.14,0.221 -7.13,0.663c-1.99,0.387 -3.51,0.968 -4.56,1.741c-1,0.774 -1.49,1.714 -1.49,2.819c0,0.664 0.19,1.299 0.58,1.907c0.44,0.553 1.02,1.023 1.74,1.41c0.77,0.387 1.65,0.635 2.65,0.746l21.89,2.653c4.81,0.553 8.81,1.575 12.02,3.068c3.21,1.492 5.61,3.454 7.21,5.886c1.66,2.377 2.49,5.251 2.49,8.623c0,3.15 -0.72,5.941 -2.16,8.373c-1.43,2.377 -3.59,4.395 -6.46,6.053c-2.82,1.658 -6.33,2.902 -10.53,3.731c-4.15,0.829 -8.96,1.243 -14.43,1.243z"/>
  <path id="svg_6" fill="white" d="m967.6199,266.7608l0,-59.196l18.4,0l0,59.196l-18.4,0z"/>
  <path id="svg_7" fill="white" d="m882.3719,266.7608l0,-59.196l43.776,0c4.532,0 8.401,0.608 11.607,1.824c3.261,1.216 5.745,3.04 7.465,5.472c1.77,2.376 2.65,5.361 2.65,8.954c0,2.763 -0.64,5.334 -1.91,7.71c-1.27,2.377 -3.34,4.339 -6.215,5.887c-2.819,1.547 -6.633,2.487 -11.441,2.819l1.575,-0.829c3.15,0 5.776,0.386 7.876,1.16c2.156,0.774 3.897,2.018 5.225,3.731c1.38,1.658 2.49,3.842 3.31,6.55l4.81,15.918l-19.148,0l-3.897,-13.016c-0.663,-2.266 -1.741,-4.007 -3.234,-5.223c-1.492,-1.272 -3.703,-1.907 -6.632,-1.907l-17.411,0l0,20.146l-18.406,0zm18.406,-33.992l22.385,0c0.885,0 1.741,-0.166 2.57,-0.498c0.885,-0.386 1.603,-0.994 2.156,-1.824c0.608,-0.829 0.912,-1.934 0.912,-3.316c0,-2.156 -0.636,-3.648 -1.907,-4.477c-1.216,-0.829 -2.46,-1.244 -3.731,-1.244l-22.385,0l0,11.359z"/>
  <path id="svg_8" fill="white" d="m800.9299,266.7608l0,-59.196l41.04,0c3.759,0 7.103,0.469 10.032,1.409c2.93,0.94 5.417,2.294 7.462,4.063c2.045,1.768 3.593,3.924 4.643,6.466c1.105,2.543 1.658,5.417 1.658,8.623c0,3.206 -0.553,6.08 -1.658,8.623c-1.05,2.542 -2.598,4.725 -4.643,6.549c-2.045,1.769 -4.532,3.123 -7.462,4.063c-2.929,0.939 -6.273,1.409 -10.032,1.409l-22.634,0l0,17.991l-18.406,0zm18.406,-32.002l20.976,0c1.216,0 2.294,-0.249 3.234,-0.746c0.994,-0.553 1.768,-1.327 2.321,-2.322c0.553,-0.995 0.829,-2.183 0.829,-3.565c0,-2.1 -0.608,-3.731 -1.824,-4.892c-1.216,-1.216 -2.736,-1.824 -4.56,-1.824l-20.976,0l0,13.349z"/>
  <path id="svg_9" fill="white" d="m715.6829,266.7608l0,-59.196l43.776,0c4.533,0 8.402,0.608 11.607,1.824c3.261,1.216 5.749,3.04 7.462,5.472c1.769,2.376 2.653,5.361 2.653,8.954c0,2.763 -0.635,5.334 -1.907,7.71c-1.271,2.377 -3.344,4.339 -6.218,5.887c-2.819,1.547 -6.632,2.487 -11.441,2.819l1.575,-0.829c3.151,0 5.776,0.386 7.876,1.16c2.156,0.774 3.897,2.018 5.224,3.731c1.381,1.658 2.487,3.842 3.316,6.55l4.809,15.918l-19.152,0l-3.897,-13.016c-0.663,-2.266 -1.741,-4.007 -3.233,-5.223c-1.493,-1.272 -3.704,-1.907 -6.633,-1.907l-17.411,0l0,20.146l-18.406,0zm18.406,-33.992l22.385,0c0.885,0 1.742,-0.166 2.571,-0.498c0.884,-0.386 1.603,-0.994 2.155,-1.824c0.608,-0.829 0.912,-1.934 0.912,-3.316c0,-2.156 -0.635,-3.648 -1.907,-4.477c-1.216,-0.829 -2.459,-1.244 -3.731,-1.244l-22.385,0l0,11.359z"/>
  <path id="svg_10" fill="white" d="m637.5609,266.7608l0,-59.196l60.026,0l0,13.845l-41.62,0l0,9.12l38.387,0l0,13.183l-38.387,0l0,9.203l41.62,0l0,13.845l-60.026,0z"/>
  <path id="svg_11" fill="white" d="m578.4829,266.7608l0,-45.516l-24.375,0l0,-13.68l66.99,0l0,13.68l-24.292,0l0,45.516l-18.323,0z"/>
  <path id="svg_12" fill="white" d="m469.0909,266.7608l0,-59.196l20.562,0l36.314,43.195l-5.058,0.995l0,-44.19l16.582,0l0,59.196l-20.478,0l-35.32,-41.951l3.98,-1.41l0,43.361l-16.582,0z"/>
  <path id="svg_13" fill="white" d="m390.9689,266.7608l0,-59.196l60.026,0l0,13.845l-41.62,0l0,9.12l38.387,0l0,13.183l-38.387,0l0,9.203l41.62,0l0,13.845l-60.026,0z"/>
 </g>
</svg>